<?xml version="1.0" encoding="UTF-8"?>
<svg xmlns="http://www.w3.org/2000/svg" xmlns:xlink="http://www.w3.org/1999/xlink" viewBox="0 0 48 48" width="48px" height="48px">
<g id="surface22831774">
<path style=" stroke:none;fill-rule:nonzero;fill:rgb(18.82353%,18.82353%,29.411766%);fill-opacity:1;" d="M 38.980469 6.96875 C 38.453125 6.984375 37.953125 7.203125 37.585938 7.585938 L 24 21.171875 L 10.414062 7.585938 C 10.035156 7.199219 9.519531 6.980469 8.976562 6.980469 C 8.164062 6.980469 7.433594 7.476562 7.128906 8.230469 C 6.820312 8.984375 7.003906 9.847656 7.585938 10.414062 L 21.171875 24 L 7.585938 37.585938 C 7.0625 38.085938 6.851562 38.832031 7.035156 39.535156 C 7.21875 40.234375 7.765625 40.78125 8.464844 40.964844 C 9.167969 41.148438 9.914062 40.9375 10.414062 40.414062 L 24 26.828125 L 37.585938 40.414062 C 38.085938 40.9375 38.832031 41.148438 39.535156 40.964844 C 40.234375 40.78125 40.78125 40.234375 40.964844 39.535156 C 41.148438 38.832031 40.9375 38.085938 40.414062 37.585938 L 26.828125 24 L 40.414062 10.414062 C 41.007812 9.84375 41.195312 8.964844 40.875 8.203125 C 40.558594 7.441406 39.808594 6.953125 38.980469 6.96875 Z M 38.980469 6.96875 "/>
</g>
</svg>
